<?xml version="1.0" encoding="UTF-8" standalone="no"?>
<svg
   xmlns:dc="http://purl.org/dc/elements/1.1/"
   xmlns:cc="http://creativecommons.org/ns#"
   xmlns:rdf="http://www.w3.org/1999/02/22-rdf-syntax-ns#"
   xmlns:svg="http://www.w3.org/2000/svg"
   xmlns="http://www.w3.org/2000/svg"
   id="svg2853"
   version="1.1"
   viewBox="0 0 10.583333 10.583334"
   height="40"
   width="40">
  <defs
     id="defs2847" />
  <metadata
     id="metadata2850">
    <rdf:RDF>
      <cc:Work
         rdf:about="">
        <dc:format>image/svg+xml</dc:format>
        <dc:type
           rdf:resource="http://purl.org/dc/dcmitype/StillImage" />
        <dc:title></dc:title>
      </cc:Work>
    </rdf:RDF>
  </metadata>
  <g
     transform="translate(0,-286.41665)"
     id="layer1">
    <path
       style="fill:#000000;fill-opacity:1;stroke:#000000;stroke-width:0.20728241;stroke-miterlimit:4;stroke-dasharray:none;stroke-opacity:1"
       d="m 1.0991467,296.86531 c -0.46417003,-0.0991 -0.86491003,-0.50376 -0.96224003,-0.97154 -0.0444,-0.2131 -0.0444,-8.15441 0,-8.36751 0.0979,-0.47058 0.50194,-0.87474 0.97236003,-0.97268 0.21304,-0.0444 8.15176,-0.0444 8.3648,0 0.47251,0.0984 0.8740103,0.5 0.9723603,0.97268 0.0444,0.2131 0.0444,8.15441 0,8.36751 -0.0745,0.35822 -0.33094,0.69157 -0.6589903,0.85674 -0.28756,0.14481 -0.29457,0.1454 -1.70956,0.14581 -1.22558,2.7e-4 -1.25637,-5.5e-4 -1.34059,-0.0414 -0.0626,-0.0303 -0.0976,-0.0654 -0.12791,-0.12796 -0.0413,-0.0853 -0.0418,-0.109 -0.0417,-1.99949 2e-5,-1.78148 0.002,-1.91806 0.0355,-1.98274 0.0195,-0.0383 0.0612,-0.0883 0.0926,-0.11143 0.0539,-0.0396 0.0909,-0.0426 0.65153,-0.0521 0.32694,-0.005 0.60199,-0.0178 0.61126,-0.0269 0.009,-0.009 0.0169,-0.20529 0.0169,-0.4356 v -0.41874 l -0.61123,-0.0103 c -0.57424,-0.009 -0.61458,-0.0127 -0.66634,-0.0513 -0.0302,-0.0226 -0.0719,-0.0727 -0.0926,-0.11112 -0.0345,-0.0642 -0.0376,-0.12703 -0.0376,-0.75911 4e-5,-0.7735 -3e-4,-0.77114 0.14865,-0.89034 l 0.0778,-0.0622 0.59564,-0.006 0.59564,-0.006 -10e-5,-0.20654 c -5e-5,-0.11361 -0.005,-0.30913 -0.0133,-0.43449 l -0.0131,-0.22792 -0.5792,2.8e-4 c -0.65882,2.6e-4 -0.77249,0.0155 -1.0142,0.13447 -0.18846,0.0928 -0.42533,0.3226 -0.52269,0.50715 -0.13357,0.25317 -0.14614,0.35289 -0.14617,1.15936 -4e-5,0.7937 -0.002,0.80967 -0.128,0.90197 -0.054,0.0397 -0.0907,0.0425 -0.66837,0.0521 l -0.61123,0.0103 -0.005,0.4139 c -0.003,0.22765 0.002,0.42193 0.0124,0.43178 0.0103,0.009 0.28425,0.0233 0.60982,0.0299 0.55768,0.0114 0.59567,0.0147 0.656,0.0548 0.14295,0.0955 0.13486,-0.0305 0.13489,2.09707 4e-5,1.89049 -5.4e-4,1.91429 -0.0417,1.99948 -0.0302,0.0626 -0.0654,0.0976 -0.12792,0.12796 -0.0854,0.0414 -0.10546,0.0418 -2.19125,0.0401 -1.71435,-0.002 -2.12949,-0.007 -2.2367,-0.0297 z m 3.98998,-2.12525 v -1.5488 l -0.59242,-0.006 c -0.55312,-0.005 -0.59708,-0.009 -0.6626,-0.0475 -0.0387,-0.0226 -0.0887,-0.0729 -0.11139,-0.11143 -0.0393,-0.0668 -0.0416,-0.10796 -0.0473,-0.86012 -0.006,-0.88851 -0.003,-0.91481 0.13276,-1.01867 l 0.0725,-0.0553 0.60262,-0.006 0.60264,-0.006 0.008,-0.6219 c 0.007,-0.61001 0.008,-0.62538 0.0633,-0.80326 0.19068,-0.62139 0.63734,-1.0683 1.25957,-1.26022 l 0.18127,-0.0559 0.88117,-0.007 0.88115,-0.007 0.0689,0.0469 c 0.038,0.0258 0.088,0.0727 0.11128,0.1041 0.0414,0.0559 0.0424,0.0767 0.0424,0.89146 0,1.13635 0.0699,1.04699 -0.81827,1.04699 h -0.58937 v 0.33319 0.33318 l 0.60257,0.006 c 0.87303,0.009 0.80507,-0.0797 0.80507,1.04959 0,0.7888 -0.002,0.82325 -0.0412,0.89073 -0.0226,0.0387 -0.0728,0.0888 -0.1114,0.11144 -0.0655,0.0385 -0.10945,0.0416 -0.66259,0.0474 l -0.59243,0.006 v 1.54879 1.54879 h 1.03882 c 1.12114,0 1.18386,-0.005 1.34605,-0.10887 0.14505,-0.0929 0.23312,-0.21651 0.27863,-0.39123 0.0458,-0.17565 0.0458,-7.98183 0,-8.15747 -0.064,-0.24563 -0.22432,-0.4059 -0.47023,-0.46996 -0.17509,-0.0456 -7.97915,-0.0455 -8.15426,1.3e-4 -0.24556003,0.064 -0.40577003,0.22439 -0.46982003,0.47038 -0.0456,0.17515 -0.0455,7.98173 1.3e-4,8.15692 0.0455,0.17489 0.13357,0.2984 0.27905003,0.39149 0.16732,0.10708 0.14221,0.10584 2.17685,0.10727 l 1.88865,0.002 z"
       id="path2394-3" />
  </g>
</svg>
